<svg xmlns="http://www.w3.org/2000/svg" width="22.773" height="22.773" viewBox="0 0 22.773 22.773">
  <path id="Icon_ionic-md-exit" data-name="Icon ionic-md-exit" d="M13.483,20.442l1.771,1.771,6.326-6.326L15.254,9.561l-1.771,1.771,3.29,3.29H4.5v2.53H16.709ZM24.743,4.5H7.03A2.538,2.538,0,0,0,4.5,7.03v5.061H7.03V7.03H24.743V24.743H7.03V19.682H4.5v5.061a2.538,2.538,0,0,0,2.53,2.53H24.743a2.538,2.538,0,0,0,2.53-2.53V7.03A2.538,2.538,0,0,0,24.743,4.5Z" transform="translate(-4.5 -4.5)" fill="#fff"/>
</svg>
