<svg xmlns="http://www.w3.org/2000/svg" width="22" height="22" viewBox="0 0 22 22">
  <path id="Icon_ionic-ios-checkbox" data-name="Icon ionic-ios-checkbox" d="M24.667,4.5H6.333A1.831,1.831,0,0,0,4.5,6.333V24.667A1.831,1.831,0,0,0,6.333,26.5H24.667A1.831,1.831,0,0,0,26.5,24.667V6.333A1.831,1.831,0,0,0,24.667,4.5Zm-3.008,7.706L14,19.9h-.006a1.035,1.035,0,0,1-.665.315,1,1,0,0,1-.67-.327L9.45,16.68a.228.228,0,0,1,0-.327l1.02-1.02a.222.222,0,0,1,.321,0l2.544,2.544,6.99-7.041a.226.226,0,0,1,.16-.069h0a.208.208,0,0,1,.16.069l1,1.037A.226.226,0,0,1,21.659,12.206Z" transform="translate(-4.5 -4.5)" fill="#1eb8d7"/>
</svg>
